<svg width="317" height="355" viewBox="0 0 317 355" fill="none" xmlns="http://www.w3.org/2000/svg">
<rect width="150" height="150" fill="#0C0C0C"/>
<path d="M57.3 101.4C52.6333 101.4 48.9667 100.6 46.3 99C43.6333 97.4667 42.3 95.2667 42.3 92.4C42.3 89.4667 43.1667 86.7667 44.9 84.3C46.6333 81.7667 48.8667 79.6 51.6 77.8C54.4 75.9333 57.3 74.5 60.3 73.5C63.3667 72.4333 66.2 71.9 68.8 71.9C70.1333 71.9 70.8 72.1 70.8 72.5C70.8 73.1 70.1 73.4 68.7 73.4C66.2333 73.4 63.5333 74 60.6 75.2C57.7333 76.4 55.1667 78.0667 52.9 80.2C51.1 81.8 49.7333 83.4333 48.8 85.1C47.9333 86.7 47.5 88.2 47.5 89.6C47.5 91.6667 48.4667 93.4 50.4 94.8C52.3333 96.1333 55.2333 96.8 59.1 96.8C61.3667 96.8 63.6667 96.6333 66 96.3C68.3333 95.9 70.4333 95.4667 72.3 95C74.2333 94.5333 75.7 94.1667 76.7 93.9C79.1667 93.1 81.6333 92.1333 84.1 91C86.6333 89.8667 88.9 88.6 90.9 87.2C92.9 85.7333 94.3667 84.2667 95.3 82.8C95.8333 82 96.2 81.2333 96.4 80.5C96.6667 79.7667 96.8 79.0667 96.8 78.4C96.8 76.5333 95.9667 74.9667 94.3 73.7C92.6333 72.3667 90.5 71.1667 87.9 70.1C85.3 69.0333 82.5333 68.0333 79.6 67.1C76.6667 66.1 73.9 65.0667 71.3 64C68.7 62.9333 66.5667 61.7333 64.9 60.4C63.2333 59 62.4 57.3333 62.4 55.4C62.4 53.2 63.2 51.2333 64.8 49.5C66.4667 47.7 68.5667 46.1333 71.1 44.8C73.7 43.4 76.4667 42.2667 79.4 41.4C82.3333 40.4667 85.1333 39.7667 87.8 39.3C90.4667 38.8333 92.6667 38.6 94.4 38.6C101.733 38.6 105.4 40.4333 105.4 44.1C105.4 45.5667 104.8 47.2667 103.6 49.2C103.067 50.2 102.3 51.1667 101.3 52.1C100.3 52.9667 99.5333 53.4 99 53.4C98.6 53.4 98.4 53.1667 98.4 52.7C98.4 52.5 98.7667 52.1 99.5 51.5C100.233 50.8333 100.967 50.0333 101.7 49.1C102.433 48.1667 102.8 47.2333 102.8 46.3C102.8 44.9 102 43.8333 100.4 43.1C98.8667 42.3667 96.8333 42 94.3 42C93.1 42 91.3667 42.2 89.1 42.6C86.8333 42.9333 84.3667 43.5 81.7 44.3C79.0333 45.1 76.4667 46.1667 74 47.5C69.4 50.0333 67.1 52.2 67.1 54C67.1 55.3333 68.4 56.6 71 57.8C72.9333 58.6667 75.1667 59.5667 77.7 60.5C80.2333 61.4333 82.8 62.4333 85.4 63.5C88 64.5667 90.4 65.7667 92.6 67.1C94.8667 68.4333 96.6667 69.9333 98 71.6C99.4 73.2 100.1 75.0333 100.1 77.1C100.1 79.9 98.5667 82.7667 95.5 85.7C93.1 87.9667 90.3 90.0667 87.1 92C83.9667 93.9333 80.6333 95.6 77.1 97C73.6333 98.4 70.2 99.4667 66.8 100.2C63.4 101 60.2333 101.4 57.3 101.4Z" fill="white"/>
</svg>
